# xmcd
# 
# Track frame offsets:
#     150
#     32092
#     45742
#     89167
#     103867
#     121935
#     138662
#     155682
# 
# Disc length: 2340
# 
# Revision: 6
# Processed by: cddbd v1.5.2PL0 Copyright (c) Steve Scherf et al.
# Submitted via: BonkEnc v1.0.8
# 
DISCID=71092208
DTITLE=Modern Jazz Quartet - Django
DYEAR=1955
DGENRE=Jazz
TTITLE0=Django
TTITLE1=One Bass Hit
TTITLE2=La Ronde Suite: piano - bass - vibes - drums
TTITLE3=The Queen's Fancy
TTITLE4=Delaunay's Dilemma
TTITLE5=Autumn in New York
TTITLE6=But Not For Me
TTITLE7=Milano
EXTD=YEAR: 1953 ID3G: 8
EXTT0=
EXTT1=
EXTT2=
EXTT3=
EXTT4=
EXTT5=
EXTT6=
EXTT7=
PLAYORDER=
